{"title":"The.Hunger.Games.2012.TS.XViD.DTRG","uid":7139412,"size":1496068196,"categoryP":"video","categoryS":"movies","magnet":"?xt=urn:btih:19593e48fd8552e338f2a2bf40c70002a4f13379&amp;dn=The.Hunger.Games.2012.TS.XViD.DTRG&amp;tr=udp%3A%2F%2Ftracker.openbittorrent.com%3A80&amp;tr=udp%3A%2F%2Fopen.demonii.com%3A1337&amp;tr=udp%3A%2F%2Ftracker.coppersurfer.tk%3A6969&amp;tr=udp%3A%2F%2Fexodus.desync.com%3A6969","seeders":1,"leechers":0,"uploader":"BLOVES","files":3,"time":1332953865,"description":"Format : AVI\n Format/Info : Audio Video Interleave\n File size : 1.39 GiB\n Duration : 2h 7mn\n Overall bit rate : 1 556 Kbps\n Writing application : VirtualDubMod 1.5.10.2 (build 2540/release)\n Writing library : VirtualDubMod build 2540/release\n\n Video\n ID : 0\n Format : MPEG-4 Visual\n Format profile : Advanced Simple@L5\n Format settings, BVOP : 2\n Format settings, QPel : No\n Format settings, GMC : No warppoints\n Format settings, Matrix : Default (H.263)\n Muxing mode : Packed bitstream\n Codec ID : XVID\n Codec ID/Hint : XviD\n Duration : 2h 7mn\n Bit rate : 1 418 Kbps\n Width : 642 pixels\n Height : 252 pixels\n Display aspect ratio : 2.548\n Frame rate : 25.000 fps\n Color space : YUV\n Chroma subsampling : 4:2:0\n Bit depth : 8 bits\n Scan type : Progressive\n Compression mode : Lossy\n Bits/(Pixel*Frame) : 0.351\n Stream size : 1.26 GiB (91%)\n Writing library : XviD 64\n\n Audio\n ID : 1\n Format : MPEG Audio\n Format version : Version 1\n Format profile : Layer 3\n Codec ID : 55\n Codec ID/Hint : MP3\n Duration : 2h 7mn\n Bit rate mode : Constant\n Bit rate : 128 Kbps\n Channel(s) : 2 channels\n Sampling rate : 48.0 KHz\n Compression mode : Lossy\n Stream size : 117 MiB (8%)\n Alignment : Split accross interleaves\n Interleave, duration : 40 ms (1.00 video frame)\n Interleave, preload duration : 500 ms\n\n\n\n\n\n\n\n\n\n &lt;a href=&quot; http://www.imdb.com/title/tt1392170/&quot; rel=&quot;nofollow&quot; target=&quot;_NEW&quot;&gt; http://www.imdb.com/title/tt1392170/&lt;/a&gt;\n\n\n\n\n\n\n Ratings: 8.1/10 from 13,331 users Metascore: 68/100 \n Reviews: 327 user | 162 critic | 43 from Metacritic.com\n\n Set in a future where the Capitol selects a boy and girl from the twelve districts to fight to the death on live television, Katniss Everdeen volunteers to take her younger sister's place for the latest match.\n\n Director:\n Gary Ross\n Writers:\n Gary Ross (screenplay), Suzanne Collins (screenplay), and 2 more credits Â»\n Stars:\n Jennifer Lawrence, Josh Hutcherson and Liam Hemsworth","torrent":{"xt":"urn:btih:19593e48fd8552e338f2a2bf40c70002a4f13379","amp;dn":"The.Hunger.Games.2012.TS.XViD.DTRG","amp;tr":["udp%3A%2F%2Ftracker.openbittorrent.com%3A80","udp%3A%2F%2Fopen.demonii.com%3A1337","udp%3A%2F%2Ftracker.coppersurfer.tk%3A6969","udp%3A%2F%2Fexodus.desync.com%3A6969"],"infoHash":"19593e48fd8552e338f2a2bf40c70002a4f13379","infoHashBuffer":{"type":"Buffer","data":[25,89,62,72,253,133,82,227,56,242,162,191,64,199,0,2,164,241,51,121]},"announce":[],"urlList":[]}}